<?xml version="1.0" encoding="UTF-8" standalone="no"?>
<svg
   version="1.1"
   id="svg833"
   xml:space="preserve"
   width="126"
   height="126"
   viewBox="0 0 126 126"
   sodipodi:docname="LogoEngrenagemSemFundo.svg"
   inkscape:version="1.2 (dc2aedaf03, 2022-05-15)"
   inkscape:export-filename="D:\OneDrive\NucleoMAP\Fotos Logos &amp; Videos\Logo\LogoCompletoSemFundoPNG.png"
   inkscape:export-xdpi="429.67001"
   inkscape:export-ydpi="429.67001"
   xmlns:inkscape="http://www.inkscape.org/namespaces/inkscape"
   xmlns:sodipodi="http://sodipodi.sourceforge.net/DTD/sodipodi-0.dtd"
   xmlns="http://www.w3.org/2000/svg"
   xmlns:svg="http://www.w3.org/2000/svg"
   xmlns:rdf="http://www.w3.org/1999/02/22-rdf-syntax-ns#"
   xmlns:cc="http://creativecommons.org/ns#"
   xmlns:dc="http://purl.org/dc/elements/1.1/"><metadata
     id="metadata839"><rdf:RDF><cc:Work
         rdf:about=""><dc:format>image/svg+xml</dc:format><dc:type
           rdf:resource="http://purl.org/dc/dcmitype/StillImage" /></cc:Work></rdf:RDF></metadata><defs
     id="defs837"><clipPath
       clipPathUnits="userSpaceOnUse"
       id="clipPath849"><path
         d="M 0,113.386 H 337.323 V 0 H 0 Z"
         id="path847" /></clipPath></defs><sodipodi:namedview
     pagecolor="#ffffff"
     bordercolor="#666666"
     borderopacity="1"
     objecttolerance="10"
     gridtolerance="10"
     guidetolerance="10"
     inkscape:pageopacity="0"
     inkscape:pageshadow="2"
     inkscape:window-width="2560"
     inkscape:window-height="1009"
     id="namedview835"
     showgrid="false"
     inkscape:zoom="1.7520299"
     inkscape:cx="196.91445"
     inkscape:cy="106.16257"
     inkscape:window-x="1912"
     inkscape:window-y="-8"
     inkscape:window-maximized="1"
     inkscape:current-layer="g841"
     inkscape:pagecheckerboard="0"
     inkscape:showpageshadow="0"
     inkscape:deskcolor="#d1d1d1" /><g
     id="g841"
     inkscape:groupmode="layer"
     inkscape:label="Logo"
     transform="matrix(1.3333333,0,0,-1.3333333,0,151.18133)"><g
       id="g3007"
       inkscape:label="engrenagem"
       inkscape:export-filename="D:\OneDrive\NucleoMAP\Fotos Logos &amp; Videos\Logo\LogoEngrenagemSemFundoPNG.png"
       inkscape:export-xdpi="429.67001"
       inkscape:export-ydpi="429.67001"
       transform="translate(0.16775934)"><path
         d="M 30.820479,94.303558 C 46.334014,103.25834 66.292449,97.910442 75.250656,82.398617 84.207153,66.883371 78.86096,46.924937 63.347425,37.96844 47.830469,29.008523 27.872035,34.358136 18.915538,49.873381 9.959041,65.386916 15.305233,85.347061 30.820479,94.303558 m -7.277047,12.602712 3.606884,2.08136 6.955523,-6.17053 c 1.937696,0.68581 3.904465,1.20572 5.886627,1.57 l 2.927921,8.83165 4.16271,-0.005 h 4.16442 l 2.946734,-8.8573 c 1.987292,-0.37284 3.945511,-0.89617 5.850712,-1.56829 l 6.974335,6.1996 3.601754,-2.08136 3.608594,-2.08306 -1.870996,-9.11726 c 1.53408,-1.303198 2.975807,-2.741505 4.30979,-4.301239 l 9.106998,1.874417 2.079645,-3.605174 2.079645,-3.606884 -6.172236,-6.955523 c 0.684094,-1.937696 1.205715,-3.902755 1.569995,-5.884917 l 8.83165,-2.931341 -0.0034,-4.161 -0.0017,-4.164421 -8.857303,-2.946733 C 84.932292,57.035842 84.40554,55.077624 83.735128,53.172423 l 6.20131,-6.972625 -2.081355,-3.603464 -2.084776,-3.606884 -9.115549,1.870996 c -1.306619,-1.53579 -2.744926,-2.977518 -4.30637,-4.313211 l 1.877838,-9.105287 -3.605174,-2.077935 -3.608595,-2.079645 -6.952102,6.170526 C 58.12437,28.7708 56.15418,28.249179 54.170308,27.884899 l -2.926211,-8.83165 -4.161,0.0051 -4.166131,0.0017 -2.945023,8.855593 c -1.989003,0.369411 -3.945511,0.896163 -5.850712,1.568285 l -6.974335,-6.20302 -3.603464,2.083065 -3.606884,2.083066 1.869286,9.117259 c -1.53237,1.303198 -2.975808,2.741505 -4.311501,4.30637 L 8.3890459,38.99116 6.3111112,42.596334 4.2297561,46.204929 10.403702,53.157031 c -0.685804,1.935985 -1.2074255,3.906175 -1.5699952,5.888337 l -8.8333601203,2.929631 0.00342047,4.15929 v 4.167841 l 8.85901365,2.943313 c 0.3711209,1.989003 0.8961628,3.945511 1.5665742,5.852422 l -6.1995989,6.976046 2.0813551,3.600043 2.0830654,3.606884 9.1155484,-1.869286 c 1.304909,1.53408 2.743216,2.979228 4.30637,4.3115 l -1.877837,9.103578 z"
         style="fill:#36a9e1;fill-opacity:1;fill-rule:evenodd;stroke:none;stroke-width:1.71023"
         id="path853" /><path
         d="m 31.784196,40.350968 0.01197,0.01026 c 8.965048,-5.274362 20.447561,-5.724154 30.069339,-0.169313 14.222309,8.210835 19.12384,26.506922 10.914715,40.72923 -1.10139,1.901781 -2.378936,3.637668 -3.805271,5.195692 l -4.566325,-4.562905 -1.889809,-1.89323 -4.323473,-4.320051 C 58.713545,74.716416 59.18728,74.039163 59.609708,73.314024 63.628759,66.34824 61.22759,57.386612 54.261805,53.364141 50.822524,51.376849 46.894116,50.959551 43.318016,51.884788 L 60.476797,69.043569 H 48.081019 l 8.203994,8.205704 4.321762,4.323472 C 54.123276,87.242172 44.470714,88.475251 36.610477,83.936289 27.368371,78.602068 23.797402,67.133237 28.052465,57.59013 L 26.04807,55.589156 c -5.460778,10.943789 -1.501586,24.464901 9.230135,30.65937 8.924002,5.152936 19.898576,3.714629 27.218379,-2.785972 1.522108,1.520399 3.044217,3.040797 4.564615,4.562905 -1.537501,1.404103 -3.191297,2.62179 -4.927185,3.64964 l -0.01026,-0.01368 C 53.158704,96.93749 41.674481,97.388992 32.050993,91.832441 17.832105,83.623316 12.928863,65.32723 21.139698,51.103211 c 0.856827,-1.479353 1.823109,-2.861222 2.881745,-4.133636 h 0.0017 c 0.297581,-0.359149 0.605423,-0.713168 0.923526,-1.060346 l 4.562905,4.562906 1.889809,1.891519 4.323473,4.321762 c -0.518201,0.624235 -0.991936,1.299778 -1.410944,2.023207 -4.022471,6.967495 -1.619592,15.930832 5.344482,19.951593 3.440992,1.987293 7.36769,2.40459 10.94721,1.482773 L 33.441413,62.980788 h 12.399199 l -8.207415,-8.205704 -4.321762,-4.321762 c 6.486919,-5.671137 16.136061,-6.902506 23.998008,-2.366964 9.238686,5.337641 12.813075,16.806472 8.558012,26.347869 l 2.002685,2.004395 c 5.460778,-10.9455 1.501585,-24.468322 -9.226714,-30.664501 -8.927423,-5.149516 -19.900287,-3.711208 -27.220089,2.791102 -1.523819,-1.523818 -3.045928,-3.045927 -4.566326,-4.568035 1.539211,-1.405813 3.189587,-2.620079 4.927185,-3.64622"
         style="fill:#9d9d9c;fill-opacity:1;fill-rule:evenodd;stroke:none;stroke-width:1.70929;stroke-miterlimit:4;stroke-dasharray:none"
         id="path857" /><path
         d="M 50.603443,80.142305 33.441242,62.981814 H 45.84044 L 37.633026,54.77611 43.317845,51.885814 60.476626,69.044595 H 48.080847 l 8.203994,8.205704 z"
         style="fill:#36a9e1;fill-opacity:1;fill-rule:evenodd;stroke:none;stroke-width:1.71023"
         id="path861" /></g><g
       id="g3051"
       inkscape:label="textoMenor"
       inkscape:export-filename="D:\OneDrive\NucleoMAP\Fotos Logos &amp; Videos\Logo\LogoTextoComFundoPNG.png"
       inkscape:export-xdpi="429.67001"
       inkscape:export-ydpi="429.67001"
       style="display:none"><path
         d="m 104.56595,28.661516 1.4537,10.14853 h 0.16418 l 4.12338,-8.32542 4.08575,8.32542 h 0.16418 l 1.45883,-10.14853 h -0.99536 l -1.0022,7.258234 -3.58636,-7.258234 h -0.25824 l -3.63083,7.311252 -0.99707,-7.311252 z"
         style="fill:#36a9e1;fill-opacity:1;fill-rule:nonzero;stroke:none;stroke-width:1.71023"
         id="path865" /><path
         d="m 123.16475,35.429084 c -0.53701,0 -1.03469,-0.133398 -1.48961,-0.396774 -0.45493,-0.265087 -0.81579,-0.636208 -1.086,-1.113363 -0.2668,-0.477155 -0.4002,-0.981674 -0.4002,-1.513557 0,-0.530173 0.1334,-1.034692 0.40362,-1.515268 0.27192,-0.485706 0.6362,-0.858537 1.09284,-1.127044 0.45663,-0.270217 0.94747,-0.403616 1.4708,-0.403616 0.53017,0 1.02956,0.133399 1.50158,0.401906 0.47374,0.263376 0.83802,0.624235 1.09284,1.077447 0.25483,0.454922 0.38139,0.969703 0.38139,1.537501 0,0.868799 -0.28561,1.592228 -0.85683,2.177128 -0.57293,0.5849 -1.27584,0.87564 -2.11043,0.87564 m 3.85829,0.738821 v -7.506218 h -0.9526 v 1.292937 c -0.40362,-0.494258 -0.85854,-0.865379 -1.36306,-1.113363 -0.50281,-0.249694 -1.0535,-0.372831 -1.64866,-0.372831 -1.06377,0 -1.9719,0.386513 -2.7227,1.154409 -0.7525,0.773025 -1.12704,1.708524 -1.12704,2.813335 0,1.079158 0.37796,2.004395 1.1373,2.77229 0.75764,0.767895 1.6709,1.152698 2.73809,1.152698 0.61397,0 1.17151,-0.129978 1.67432,-0.395064 0.49768,-0.259956 0.9355,-0.65331 1.31175,-1.178352 v 1.380159 z"
         style="fill:#36a9e1;fill-opacity:1;fill-rule:nonzero;stroke:none;stroke-width:1.71023"
         id="path869" /><path
         d="m 134.50172,35.429084 c -0.53701,0 -1.03298,-0.133398 -1.48961,-0.396774 -0.45493,-0.265087 -0.81579,-0.636208 -1.08429,-1.113363 -0.26851,-0.477155 -0.40362,-0.981674 -0.40362,-1.513557 0,-0.530173 0.13511,-1.034692 0.40704,-1.515268 0.27021,-0.485706 0.63449,-0.858537 1.09284,-1.127044 0.45492,-0.270217 0.94576,-0.403616 1.4708,-0.403616 0.52846,0 1.02956,0.133399 1.50158,0.401906 0.47203,0.263376 0.83631,0.624235 1.09113,1.077447 0.25483,0.454922 0.3831,0.969703 0.3831,1.537501 0,0.868799 -0.28732,1.592228 -0.85854,2.177128 -0.57122,0.5849 -1.27584,0.87564 -2.11043,0.87564 m 3.85829,0.738821 V 25.916761 h -0.9526 v 4.037863 c -0.40362,-0.494258 -0.85854,-0.865379 -1.36135,-1.113363 -0.50281,-0.249694 -1.0535,-0.372831 -1.65037,-0.372831 -1.06377,0 -1.9719,0.386513 -2.7227,1.154409 -0.7525,0.773025 -1.12704,1.708524 -1.12704,2.813335 0,1.079158 0.37796,2.004395 1.1373,2.77229 0.75935,0.767895 1.67261,1.152698 2.73809,1.152698 0.61568,0 1.17493,-0.129978 1.67432,-0.395064 0.49768,-0.259956 0.9355,-0.65331 1.31175,-1.178352 v 1.380159 z"
         style="fill:#36a9e1;fill-opacity:1;fill-rule:nonzero;stroke:none;stroke-width:1.71023"
         id="path873" /><path
         d="m 142.09756,36.167222 h 0.96457 v -3.50427 c 0,-0.855117 0.0479,-1.443438 0.14024,-1.766672 0.13682,-0.458343 0.4002,-0.822623 0.78842,-1.089419 0.39164,-0.266797 0.85341,-0.400195 1.39384,-0.400195 0.53701,0 0.99536,0.129978 1.3699,0.389933 0.37625,0.261666 0.63449,0.602003 0.77815,1.026141 0.0958,0.287319 0.14537,0.901293 0.14537,1.840212 v 3.50427 h 0.98681 v -3.683845 c 0,-1.032981 -0.12143,-1.814558 -0.36428,-2.33789 -0.24114,-0.525042 -0.60542,-0.932078 -1.08942,-1.229658 -0.484,-0.297581 -1.09284,-0.448082 -1.82311,-0.448082 -0.73198,0 -1.34253,0.150501 -1.82995,0.448082 -0.49255,0.29758 -0.85512,0.708037 -1.09968,1.238209 -0.24114,0.531883 -0.36086,1.333983 -0.36086,2.399459 z"
         style="fill:#36a9e1;fill-opacity:1;fill-rule:nonzero;stroke:none;stroke-width:1.71023"
         id="path877" /><path
         d="m 152.35982,36.167222 h 0.96457 v -7.506219 h -0.96457 z m 0.47886,3.090393 c 0.21891,0 0.40704,-0.07867 0.56267,-0.234302 0.15734,-0.157342 0.2343,-0.345468 0.2343,-0.564378 0,-0.217199 -0.077,-0.403615 -0.2343,-0.560956 -0.15563,-0.157342 -0.34376,-0.234302 -0.56267,-0.234302 -0.21549,0 -0.4019,0.07696 -0.55582,0.234302 -0.15563,0.157341 -0.23601,0.343757 -0.23601,0.560956 0,0.21891 0.0804,0.407036 0.23601,0.564378 0.15392,0.155631 0.34033,0.234302 0.55582,0.234302"
         style="fill:#36a9e1;fill-opacity:1;fill-rule:nonzero;stroke:none;stroke-width:1.71023"
         id="path879"
         inkscape:export-filename="D:\OneDrive\NucleoMAP\Fotos Logos &amp; Videos\Logo\LogoTextoJPG.jpg"
         inkscape:export-xdpi="429.67001"
         inkscape:export-ydpi="429.67001" /><path
         d="m 157.02534,36.167222 h 0.96628 v -1.345954 c 0.38652,0.51478 0.81407,0.901293 1.28268,1.156118 0.4686,0.256535 0.98167,0.383092 1.53237,0.383092 0.56095,0 1.05863,-0.143659 1.49303,-0.427558 0.4344,-0.287319 0.75422,-0.670412 0.96115,-1.152698 0.20865,-0.483996 0.31127,-1.234789 0.31127,-2.254089 v -3.865129 h -0.96458 v 3.58123 c 0,0.865379 -0.0376,1.443438 -0.10774,1.730757 -0.11288,0.497679 -0.32665,0.87222 -0.64476,1.121914 -0.31639,0.251405 -0.73198,0.374541 -1.24163,0.374541 -0.58319,0 -1.10652,-0.191546 -1.56828,-0.578059 -0.46348,-0.388223 -0.7679,-0.865378 -0.91498,-1.436597 -0.0923,-0.37112 -0.13853,-1.051794 -0.13853,-2.040309 v -2.753477 h -0.96628 z"
         style="fill:#36a9e1;fill-opacity:1;fill-rule:nonzero;stroke:none;stroke-width:1.71023"
         id="path883" /><path
         d="m 170.95451,35.429084 c -0.53701,0 -1.03298,-0.133398 -1.4879,-0.396774 -0.45664,-0.265087 -0.8175,-0.636208 -1.086,-1.113363 -0.26851,-0.477155 -0.40191,-0.981674 -0.40191,-1.513557 0,-0.530173 0.13511,-1.034692 0.40533,-1.515268 0.27193,-0.485706 0.63621,-0.858537 1.09284,-1.127044 0.45492,-0.270217 0.94576,-0.403616 1.4708,-0.403616 0.52846,0 1.02956,0.133399 1.50158,0.401906 0.47203,0.263376 0.83631,0.624235 1.09284,1.077447 0.25483,0.454922 0.38139,0.969703 0.38139,1.537501 0,0.868799 -0.28732,1.592228 -0.85854,2.177128 -0.57122,0.5849 -1.27584,0.87564 -2.11043,0.87564 m 3.85829,0.738821 v -7.506218 h -0.9526 v 1.292937 c -0.40362,-0.494258 -0.85854,-0.865379 -1.36135,-1.113363 -0.50281,-0.249694 -1.0535,-0.372831 -1.65037,-0.372831 -1.06377,0 -1.97019,0.386513 -2.7227,1.154409 -0.7525,0.773025 -1.12704,1.708524 -1.12704,2.813335 0,1.079158 0.37796,2.004395 1.13901,2.77229 0.75764,0.767895 1.6709,1.152698 2.73638,1.152698 0.61568,0 1.17493,-0.129978 1.67432,-0.395064 0.49768,-0.259956 0.93379,-0.65331 1.31175,-1.178352 v 1.380159 z"
         style="fill:#36a9e1;fill-opacity:1;fill-rule:nonzero;stroke:none;stroke-width:1.71023"
         id="path887" /><path
         d="m 182.45344,35.345454 -0.6191,-0.641338 c -0.51821,0.501099 -1.02272,0.750793 -1.51527,0.750793 -0.31469,0 -0.58319,-0.102614 -0.80723,-0.309552 -0.22404,-0.206939 -0.3335,-0.448082 -0.3335,-0.721719 0,-0.244564 0.0924,-0.477156 0.27535,-0.697776 0.1847,-0.224041 0.57122,-0.490837 1.16125,-0.791838 0.72001,-0.374542 1.20742,-0.731981 1.46567,-1.079158 0.25482,-0.347178 0.37967,-0.742242 0.37967,-1.178352 0,-0.615684 -0.21549,-1.137305 -0.64989,-1.564864 -0.43098,-0.427559 -0.97141,-0.643048 -1.62301,-0.643048 -0.43098,0 -0.84486,0.09577 -1.23992,0.283899 -0.39335,0.189836 -0.7183,0.446371 -0.97654,0.781577 l 0.60542,0.687514 c 0.49426,-0.557536 1.01759,-0.834594 1.56999,-0.834594 0.38823,0 0.71659,0.123137 0.98852,0.372831 0.27193,0.247984 0.40875,0.538724 0.40875,0.87564 0,0.277058 -0.0907,0.521621 -0.27022,0.738821 -0.17958,0.210359 -0.5849,0.477155 -1.21598,0.798679 -0.67896,0.350598 -1.1373,0.694355 -1.38358,1.034692 -0.24456,0.340337 -0.36599,0.72856 -0.36599,1.16638 0,0.571218 0.19497,1.044953 0.5849,1.419494 0.38994,0.376252 0.88077,0.567798 1.47422,0.567798 0.69265,0 1.387,-0.338626 2.08649,-1.015879"
         style="fill:#36a9e1;fill-opacity:1;fill-rule:nonzero;stroke:none;stroke-width:1.71023"
         id="path891" /><path
         d="m 186.81916,30.525501 0.92866,-0.44124 -1.39726,-2.608108 -0.6841,0.29074 z"
         style="fill:#36a9e1;fill-opacity:1;fill-rule:nonzero;stroke:none;stroke-width:1.71023"
         id="path895" /><path
         d="m 201.24755,36.65156 -1.73931,-3.670163 h 3.47007 z m 0.12656,2.158316 4.73393,-10.148531 h -1.09626 l -1.59565,3.340088 h -4.36965 l -1.58197,-3.340088 h -1.13046 l 4.79378,10.148531 z"
         style="fill:#36a9e1;fill-opacity:1;fill-rule:nonzero;stroke:none;stroke-width:1.71023"
         id="path899" /><path
         d="m 209.0924,36.167222 h 0.96457 v -3.50427 c 0,-0.855117 0.0462,-1.443438 0.13853,-1.766672 0.13853,-0.458343 0.40191,-0.822623 0.79184,-1.089419 0.38822,-0.266797 0.8517,-0.400195 1.39213,-0.400195 0.53872,0 0.99365,0.129978 1.37161,0.389933 0.37283,0.261666 0.6345,0.602003 0.77473,1.026141 0.0958,0.287319 0.14708,0.901293 0.14708,1.840212 v 3.50427 h 0.9851 v -3.683845 c 0,-1.032981 -0.11972,-1.814558 -0.36086,-2.33789 -0.24456,-0.525042 -0.60542,-0.932078 -1.09284,-1.229658 -0.484,-0.297581 -1.09113,-0.448082 -1.8214,-0.448082 -0.73198,0 -1.34082,0.150501 -1.83166,0.448082 -0.49084,0.29758 -0.85512,0.708037 -1.09797,1.238209 -0.24114,0.531883 -0.36086,1.333983 -0.36086,2.399459 z"
         style="fill:#36a9e1;fill-opacity:1;fill-rule:nonzero;stroke:none;stroke-width:1.71023"
         id="path903" /><path
         d="m 220.34078,38.953022 h 0.96457 V 36.16705 h 1.53066 v -0.834594 h -1.53066 v -6.671624 h -0.96457 v 6.671624 h -1.31859 v 0.834594 h 1.31859 z"
         style="fill:#36a9e1;fill-opacity:1;fill-rule:nonzero;stroke:none;stroke-width:1.71023"
         id="path907" /><path
         d="m 229.53004,35.415745 c -0.80552,0 -1.49303,-0.297581 -2.07109,-0.889322 -0.57806,-0.593451 -0.86538,-1.31175 -0.86538,-2.153185 0,-0.542144 0.12998,-1.050084 0.39506,-1.516978 0.26338,-0.466894 0.6174,-0.831174 1.06377,-1.085998 0.44808,-0.256536 0.94063,-0.383093 1.47764,-0.383093 0.53359,0 1.02614,0.126557 1.47251,0.383093 0.44808,0.254824 0.8021,0.619104 1.06548,1.085998 0.26508,0.466894 0.39506,0.974834 0.39506,1.516978 0,0.841435 -0.28732,1.559734 -0.8688,2.153185 -0.57806,0.591741 -1.26557,0.889322 -2.06425,0.889322 m 0.003,0.94576 c 1.15612,0 2.11385,-0.417298 2.87319,-1.257023 0.69094,-0.764474 1.0347,-1.665768 1.0347,-2.712431 0,-1.044953 -0.36428,-1.963349 -1.09284,-2.744926 -0.73027,-0.784998 -1.66919,-1.178352 -2.81505,-1.178352 -1.1527,0 -2.09504,0.393354 -2.82189,1.178352 -0.73198,0.781577 -1.09626,1.699973 -1.09626,2.744926 0,1.043243 0.34376,1.941116 1.0347,2.70559 0.76105,0.843146 1.72049,1.263864 2.88345,1.263864"
         style="fill:#36a9e1;fill-opacity:1;fill-rule:nonzero;stroke:none;stroke-width:1.71023"
         id="path911" /><path
         d="m 236.91791,36.167222 h 0.96628 v -1.296358 c 0.3335,0.477156 0.68068,0.829464 1.03469,1.048374 0.48913,0.29416 1.0022,0.44124 1.54093,0.44124 0.36256,0 0.70803,-0.07354 1.03469,-0.213779 0.32836,-0.143659 0.59516,-0.333496 0.8021,-0.571218 0.20694,-0.232592 0.38822,-0.574639 0.53701,-1.014169 0.32152,0.58661 0.72172,1.034692 1.20401,1.339113 0.48399,0.306132 1.00219,0.460053 1.55631,0.460053 0.51649,0 0.97483,-0.129977 1.37161,-0.393353 0.39848,-0.261666 0.69264,-0.627656 0.8859,-1.096261 0.18983,-0.470314 0.28732,-1.17151 0.28732,-2.110429 v -4.099431 h -0.9851 v 4.099431 c 0,0.805521 -0.0564,1.356216 -0.17102,1.660638 -0.11801,0.299291 -0.30955,0.540434 -0.58661,0.723429 -0.27877,0.184705 -0.61227,0.277058 -0.99707,0.277058 -0.46689,0 -0.89445,-0.136819 -1.28267,-0.413877 -0.38652,-0.277058 -0.667,-0.644758 -0.84828,-1.101391 -0.17615,-0.461763 -0.2668,-1.229658 -0.2668,-2.305396 v -2.939892 h -0.96457 v 3.844606 c 0,0.906425 -0.0582,1.520399 -0.17102,1.845343 -0.11288,0.323234 -0.30784,0.58319 -0.58832,0.778157 -0.28048,0.196677 -0.61398,0.29245 -1.0022,0.29245 -0.44295,0 -0.86196,-0.133398 -1.24847,-0.403615 -0.39164,-0.266797 -0.67896,-0.631077 -0.86538,-1.085999 -0.18299,-0.453212 -0.27706,-1.150988 -0.27706,-2.089907 v -3.181035 h -0.96628 z"
         style="fill:#36a9e1;fill-opacity:1;fill-rule:nonzero;stroke:none;stroke-width:1.71023"
         id="path915" /><path
         d="m 255.48746,35.429084 c -0.53701,0 -1.03469,-0.133398 -1.48961,-0.396774 -0.45493,-0.265087 -0.81579,-0.636208 -1.086,-1.113363 -0.2668,-0.477155 -0.4002,-0.981674 -0.4002,-1.513557 0,-0.530173 0.1334,-1.034692 0.40362,-1.515268 0.27364,-0.485706 0.63792,-0.858537 1.09284,-1.127044 0.45663,-0.270217 0.94747,-0.403616 1.47251,-0.403616 0.52846,0 1.02956,0.133399 1.49987,0.401906 0.47374,0.263376 0.83802,0.624235 1.09284,1.077447 0.25654,0.454922 0.3831,0.969703 0.3831,1.537501 0,0.868799 -0.28732,1.592228 -0.85854,2.177128 -0.57122,0.5849 -1.27584,0.87564 -2.11043,0.87564 m 3.85829,0.738821 v -7.506218 h -0.9526 v 1.292937 c -0.40362,-0.494258 -0.85854,-0.865379 -1.36306,-1.113363 -0.5011,-0.249694 -1.05179,-0.372831 -1.64866,-0.372831 -1.06377,0 -1.9719,0.386513 -2.7227,1.154409 -0.7525,0.773025 -1.12704,1.708524 -1.12704,2.813335 0,1.079158 0.37796,2.004395 1.1373,2.77229 0.75764,0.767895 1.67261,1.152698 2.73809,1.152698 0.61397,0 1.17322,-0.129978 1.67432,-0.395064 0.49768,-0.259956 0.9355,-0.65331 1.31175,-1.178352 v 1.380159 z"
         style="fill:#36a9e1;fill-opacity:1;fill-rule:nonzero;stroke:none;stroke-width:1.71023"
         id="path919" /><path
         d="m 266.55712,28.661516 h 0.60713 l -0.11629,-0.820912 c 0.10774,0.01539 0.19325,0.02223 0.26337,0.02223 0.22404,0 0.41217,-0.07012 0.56438,-0.210359 0.1505,-0.140239 0.22746,-0.316394 0.22746,-0.526752 0,-0.304422 -0.13682,-0.562667 -0.41387,-0.776447 -0.27364,-0.210359 -0.66529,-0.316393 -1.16638,-0.316393 -0.40704,0 -0.79013,0.07012 -1.15099,0.206938 l 0.15221,0.477156 c 0.29416,-0.09235 0.56951,-0.136819 0.82946,-0.136819 0.34376,0 0.5849,0.04105 0.72172,0.126557 0.14024,0.0838 0.20523,0.191546 0.20523,0.321524 0,0.07696 -0.0359,0.14708 -0.11288,0.206939 -0.0735,0.05986 -0.17957,0.09064 -0.31468,0.09064 -0.10945,0 -0.27022,-0.02394 -0.47887,-0.06328 z m 3.94209,5.946485 -0.76961,-0.475445 c -0.66015,0.87906 -1.56315,1.31688 -2.70559,1.31688 -0.91497,0 -1.67432,-0.29416 -2.27803,-0.882481 -0.60371,-0.588321 -0.90471,-1.303198 -0.90471,-2.141213 0,-0.547275 0.13682,-1.062056 0.4173,-1.542632 0.27705,-0.483996 0.65844,-0.858537 1.14243,-1.121913 0.484,-0.268507 1.02956,-0.401905 1.62985,-0.401905 1.10311,0 2.00098,0.43782 2.69875,1.31688 l 0.76961,-0.501099 c -0.36086,-0.542144 -0.84315,-0.962862 -1.44686,-1.260442 -0.60542,-0.295871 -1.29294,-0.446371 -2.06767,-0.446371 -1.18519,0 -2.16858,0.376251 -2.95016,1.132175 -0.78157,0.754213 -1.17151,1.672609 -1.17151,2.751767 0,0.728559 0.17958,1.404102 0.54728,2.024917 0.36428,0.624236 0.8688,1.108232 1.50672,1.45883 0.63791,0.347177 1.35279,0.525042 2.14292,0.525042 0.49939,0 0.97654,-0.07696 1.44173,-0.227461 0.46005,-0.153921 0.85169,-0.350598 1.17493,-0.595162 0.32152,-0.242853 0.59516,-0.554116 0.82262,-0.930367"
         style="fill:#36a9e1;fill-opacity:1;fill-rule:nonzero;stroke:none;stroke-width:1.71023"
         id="path923" /><path
         d="m 279.83487,38.959692 0.48058,-0.668702 c -0.33008,-0.239432 -0.60714,-0.403615 -0.8346,-0.487416 -0.23088,-0.0838 -0.46689,-0.126558 -0.72172,-0.126558 -0.33007,0 -0.67041,0.08722 -1.02272,0.256535 -0.29587,0.147081 -0.48741,0.230882 -0.57122,0.254825 -0.10945,0.0325 -0.22917,0.04618 -0.35914,0.04618 -0.16077,0 -0.31127,-0.02565 -0.45835,-0.0838 -0.14537,-0.05986 -0.35402,-0.186415 -0.63107,-0.389933 l -0.45493,0.704616 c 0.4173,0.448082 0.9355,0.673833 1.5529,0.673833 0.29416,0 0.64475,-0.09406 1.0535,-0.283899 0.38993,-0.182995 0.7012,-0.273638 0.92524,-0.273638 0.25311,0 0.60029,0.126558 1.04153,0.377962 m -2.16858,-3.529924 c -0.53701,0 -1.0364,-0.135108 -1.48961,-0.398484 -0.45321,-0.263376 -0.81407,-0.634497 -1.08429,-1.111652 -0.26851,-0.478866 -0.4019,-0.981675 -0.4019,-1.513558 0,-0.531883 0.13339,-1.034692 0.40532,-1.516978 0.27022,-0.483996 0.6345,-0.858537 1.09113,-1.125334 0.45834,-0.270217 0.94918,-0.403615 1.4708,-0.403615 0.53017,0 1.02785,0.133398 1.50159,0.400195 0.47544,0.263376 0.83972,0.624235 1.09284,1.079158 0.25482,0.454922 0.38138,0.967992 0.38138,1.53579 0,0.868799 -0.2839,1.593938 -0.85512,2.178838 -0.57464,0.584901 -1.27583,0.87564 -2.11214,0.87564 m 3.85829,0.737111 v -7.504508 h -0.95089 v 1.291227 c -0.40532,-0.494258 -0.85854,-0.863668 -1.36306,-1.111652 -0.50451,-0.249694 -1.05521,-0.374541 -1.65037,-0.374541 -1.06206,0 -1.97019,0.388223 -2.72269,1.156118 -0.7508,0.771316 -1.12876,1.706814 -1.12876,2.813335 0,1.077448 0.38138,2.002685 1.13902,2.77229 0.75763,0.767895 1.6709,1.150988 2.73979,1.150988 0.61398,0 1.17151,-0.129978 1.67261,-0.393354 0.49768,-0.259956 0.9355,-0.65502 1.31346,-1.178351 v 1.378448 z"
         style="fill:#36a9e1;fill-opacity:1;fill-rule:nonzero;stroke:none;stroke-width:1.71023"
         id="path927" /><path
         d="m 288.9405,35.415745 c -0.8021,0 -1.49303,-0.297581 -2.06767,-0.889322 -0.57806,-0.593451 -0.86538,-1.31175 -0.86538,-2.153185 0,-0.542144 0.12998,-1.050084 0.39506,-1.516978 0.25996,-0.466894 0.6174,-0.831174 1.06548,-1.085998 0.44637,-0.256536 0.93892,-0.383093 1.47251,-0.383093 0.53359,0 1.02614,0.126557 1.47593,0.383093 0.44808,0.254824 0.8021,0.619104 1.06548,1.085998 0.26166,0.466894 0.39506,0.974834 0.39506,1.516978 0,0.841435 -0.29074,1.559734 -0.8688,2.153185 -0.58148,0.591741 -1.26899,0.889322 -2.06767,0.889322 m 0.003,0.94576 c 1.15441,0 2.11385,-0.417298 2.87661,-1.257023 0.69094,-0.764474 1.0347,-1.665768 1.0347,-2.712431 0,-1.044953 -0.36428,-1.963349 -1.09626,-2.744926 -0.72685,-0.784998 -1.66577,-1.178352 -2.81505,-1.178352 -1.1527,0 -2.09162,0.393354 -2.82189,1.178352 -0.72856,0.781577 -1.09797,1.699973 -1.09797,2.744926 0,1.043243 0.34889,1.941116 1.03983,2.70559 0.75934,0.843146 1.72049,1.263864 2.88003,1.263864"
         style="fill:#36a9e1;fill-opacity:1;fill-rule:nonzero;stroke:none;stroke-width:1.71023"
         id="path931" /><path
         d="m 308.26084,33.174312 c -0.12998,0.514781 -0.3181,0.925237 -0.56438,1.233079 -0.24456,0.309552 -0.57122,0.557536 -0.97483,0.743952 -0.40533,0.191546 -0.83288,0.283899 -1.28097,0.283899 -0.73369,0 -1.36818,-0.236013 -1.89665,-0.711458 -0.38651,-0.343757 -0.67725,-0.861958 -0.87735,-1.549472 z m 0,-2.021497 0.81407,-0.427559 c -0.2668,-0.523331 -0.57635,-0.947469 -0.92352,-1.268993 -0.35231,-0.323235 -0.74567,-0.567798 -1.18349,-0.735401 -0.43782,-0.169313 -0.93207,-0.253115 -1.48277,-0.253115 -1.22624,0 -2.18226,0.403616 -2.87319,1.205715 -0.69094,0.8021 -1.0347,1.710235 -1.0347,2.719273 0,0.9526 0.29416,1.800877 0.87735,2.544829 0.73883,0.94918 1.73076,1.422915 2.9741,1.422915 1.27926,0 2.30027,-0.483997 3.06645,-1.45541 0.54386,-0.685804 0.81749,-1.540921 0.82776,-2.565351 h -6.75372 c 0.0205,-0.87222 0.29758,-1.587098 0.83802,-2.144634 0.53701,-0.557537 1.20229,-0.834594 1.99413,-0.834594 0.38138,0 0.75592,0.0667 1.11507,0.200097 0.36086,0.129978 0.6687,0.306132 0.92353,0.526752 0.25311,0.22062 0.52675,0.574639 0.82091,1.065476"
         style="fill:#36a9e1;fill-opacity:1;fill-rule:nonzero;stroke:none;stroke-width:1.71023"
         id="path935" /><path
         d="m 319.59115,37.814006 v -3.440991 l 1.71708,-0.01881 c 0.69435,0 1.20229,0.06328 1.52381,0.189836 0.32324,0.123137 0.57293,0.326655 0.75764,0.610554 0.18299,0.280478 0.27706,0.598582 0.27706,0.945759 0,0.340337 -0.0941,0.651599 -0.27706,0.935498 -0.18471,0.280479 -0.42414,0.480576 -0.72514,0.600293 -0.30442,0.121426 -0.79526,0.177864 -1.47935,0.177864 z m -1.01588,0.995356 h 2.0215 c 1.15954,0 1.9394,-0.05131 2.34473,-0.153921 0.58148,-0.140239 1.05179,-0.434399 1.42291,-0.87735 0.36599,-0.444661 0.5507,-1.002197 0.5507,-1.674319 0,-0.675543 -0.17958,-1.233079 -0.53701,-1.670899 -0.36086,-0.43953 -0.85512,-0.733691 -1.48278,-0.887612 -0.46176,-0.111165 -1.3203,-0.164182 -2.57903,-0.164182 h -0.72514 v -4.720247 h -1.01588 z"
         style="fill:#36a9e1;fill-opacity:1;fill-rule:nonzero;stroke:none;stroke-width:1.71023"
         id="path939" /><path
         d="m 328.11222,36.167222 h 0.98852 v -1.09626 c 0.29416,0.430979 0.60371,0.755923 0.92865,0.969703 0.32666,0.213779 0.6687,0.319813 1.02272,0.319813 0.2668,0 0.5507,-0.08722 0.85512,-0.256535 l -0.50452,-0.812361 c -0.20181,0.08722 -0.37112,0.129978 -0.51136,0.129978 -0.32152,0 -0.63108,-0.133398 -0.92866,-0.396775 -0.301,-0.263376 -0.52846,-0.673832 -0.6858,-1.229658 -0.11972,-0.427559 -0.17615,-1.292937 -0.17615,-2.594425 v -2.539698 h -0.98852 z"
         style="fill:#36a9e1;fill-opacity:1;fill-rule:nonzero;stroke:none;stroke-width:1.71023"
         id="path943" /><path
         d="m 337.97292,35.415745 c -0.80552,0 -1.49303,-0.297581 -2.07109,-0.889322 -0.57806,-0.593451 -0.86538,-1.31175 -0.86538,-2.153185 0,-0.542144 0.12998,-1.050084 0.39506,-1.516978 0.26338,-0.466894 0.6174,-0.831174 1.06548,-1.085998 0.44637,-0.256536 0.93892,-0.383093 1.47593,-0.383093 0.53359,0 1.02443,0.126557 1.47251,0.383093 0.44808,0.254824 0.8021,0.619104 1.06548,1.085998 0.26508,0.466894 0.39506,0.974834 0.39506,1.516978 0,0.841435 -0.28732,1.559734 -0.8688,2.153185 -0.57806,0.591741 -1.26557,0.889322 -2.06425,0.889322 m 0.003,0.94576 c 1.15612,0 2.11385,-0.417298 2.87319,-1.257023 0.69094,-0.764474 1.0347,-1.665768 1.0347,-2.712431 0,-1.044953 -0.36428,-1.963349 -1.09284,-2.744926 -0.73027,-0.784998 -1.66919,-1.178352 -2.81505,-1.178352 -1.1527,0 -2.09504,0.393354 -2.82189,1.178352 -0.73198,0.781577 -1.09626,1.699973 -1.09626,2.744926 0,1.043243 0.34376,1.941116 1.0347,2.70559 0.76276,0.843146 1.72049,1.263864 2.88345,1.263864"
         style="fill:#36a9e1;fill-opacity:1;fill-rule:nonzero;stroke:none;stroke-width:1.71023"
         id="path947" /><path
         d="m 348.98836,35.429084 c -0.54727,0 -1.05521,-0.133398 -1.52553,-0.396774 -0.4686,-0.265087 -0.83459,-0.629367 -1.1031,-1.096261 -0.2668,-0.466894 -0.40019,-0.971413 -0.40019,-1.513557 0,-0.824333 0.27705,-1.503296 0.82775,-2.040309 0.5524,-0.542145 1.26728,-0.808941 2.14463,-0.808941 0.88932,0 1.6042,0.266796 2.14122,0.798679 0.54214,0.533593 0.81236,1.2365 0.81236,2.103588 0,0.567798 -0.12314,1.072317 -0.37112,1.516978 -0.2497,0.441241 -0.60201,0.791839 -1.05522,1.048374 -0.45834,0.258245 -0.94576,0.388223 -1.4708,0.388223 m 2.85096,0.738821 h 0.96457 v -5.978979 c 0,-1.056925 -0.0941,-1.82482 -0.27706,-2.312237 -0.25482,-0.690934 -0.69093,-1.222817 -1.31688,-1.593938 -0.62765,-0.372831 -1.37844,-0.560957 -2.2575,-0.560957 -0.64134,0 -1.2194,0.09406 -1.73418,0.273638 -0.50965,0.184705 -0.92866,0.427558 -1.25189,0.7354 -0.32153,0.307843 -0.6174,0.754214 -0.88933,1.345955 h 1.05009 c 0.2839,-0.497678 0.65331,-0.865379 1.10481,-1.104812 0.4515,-0.237722 1.00904,-0.357439 1.67774,-0.357439 0.65673,0 1.21598,0.123137 1.66577,0.367701 0.45492,0.242853 0.77815,0.554116 0.97312,0.925237 0.19326,0.36941 0.29074,0.971413 0.29074,1.795746 v 0.388223 c -0.36428,-0.461764 -0.80894,-0.815782 -1.33398,-1.058635 -0.52333,-0.247984 -1.08258,-0.371121 -1.67432,-0.371121 -0.68752,0 -1.33912,0.174444 -1.94283,0.51478 -0.60713,0.343757 -1.07916,0.803811 -1.40923,1.38187 -0.33179,0.581479 -0.49768,1.215976 -0.49768,1.912042 0,0.694355 0.17273,1.342534 0.51649,1.939405 0.34547,0.602003 0.82262,1.075738 1.43318,1.426336 0.61226,0.347177 1.2536,0.525042 1.93085,0.525042 0.56096,0 1.086,-0.116296 1.57,-0.347178 0.48399,-0.234302 0.95602,-0.619105 1.40752,-1.149277 z"
         style="fill:#36a9e1;fill-opacity:1;fill-rule:nonzero;stroke:none;stroke-width:1.71023"
         id="path951" /><path
         d="m 356.20093,36.167222 h 0.98509 v -1.09626 c 0.29417,0.430979 0.60543,0.755923 0.93208,0.969703 0.32666,0.213779 0.6687,0.319813 1.02272,0.319813 0.2668,0 0.5507,-0.08722 0.85512,-0.256535 l -0.50452,-0.812361 c -0.20352,0.08722 -0.37112,0.129978 -0.51136,0.129978 -0.32152,0 -0.63108,-0.133398 -0.93208,-0.396775 -0.29758,-0.263376 -0.52504,-0.673832 -0.68067,-1.229658 -0.12143,-0.427559 -0.18129,-1.292937 -0.18129,-2.594425 v -2.539698 h -0.98509 z"
         style="fill:#36a9e1;fill-opacity:1;fill-rule:nonzero;stroke:none;stroke-width:1.71023"
         id="path955" /><path
         d="m 366.12816,35.429084 c -0.53701,0 -1.03298,-0.133398 -1.48619,-0.396774 -0.45835,-0.265087 -0.81921,-0.636208 -1.086,-1.113363 -0.27022,-0.477155 -0.40362,-0.981674 -0.40362,-1.513557 0,-0.530173 0.13682,-1.034692 0.40704,-1.515268 0.27022,-0.485706 0.6345,-0.858537 1.09113,-1.127044 0.45492,-0.270217 0.94576,-0.403616 1.4708,-0.403616 0.52846,0 1.02956,0.133399 1.5033,0.401906 0.47031,0.263376 0.83459,0.624235 1.09283,1.077447 0.25312,0.454922 0.37968,0.969703 0.37968,1.537501 0,0.868799 -0.28732,1.592228 -0.85854,2.177128 -0.57122,0.5849 -1.27584,0.87564 -2.11043,0.87564 m 3.85829,0.738821 v -7.506218 h -0.9526 v 1.292937 c -0.40362,-0.494258 -0.85854,-0.865379 -1.35964,-1.113363 -0.50452,-0.249694 -1.05521,-0.372831 -1.65208,-0.372831 -1.06377,0 -1.96848,0.386513 -2.7227,1.154409 -0.7525,0.773025 -1.12704,1.708524 -1.12704,2.813335 0,1.079158 0.37796,2.004395 1.13901,2.77229 0.75935,0.767895 1.6709,1.152698 2.73638,1.152698 0.61739,0 1.17493,-0.129978 1.67432,-0.395064 0.49768,-0.259956 0.93379,-0.65331 1.31175,-1.178352 v 1.380159 z"
         style="fill:#36a9e1;fill-opacity:1;fill-rule:nonzero;stroke:none;stroke-width:1.71023"
         id="path959" /><path
         d="m 373.84765,36.167222 h 0.96457 v -1.296358 c 0.33863,0.477156 0.68239,0.829464 1.0364,1.048374 0.48742,0.29416 1.0022,0.44124 1.53922,0.44124 0.36427,0 0.71145,-0.07354 1.0364,-0.213779 0.32665,-0.143659 0.59345,-0.333496 0.8021,-0.571218 0.20694,-0.232592 0.38651,-0.574639 0.54043,-1.014169 0.31981,0.58661 0.72172,1.034692 1.2023,1.339113 0.48057,0.306132 0.99877,0.460053 1.55631,0.460053 0.51649,0 0.97654,-0.129977 1.37161,-0.393353 0.39506,-0.261666 0.69264,-0.627656 0.88419,-1.096261 0.19325,-0.470314 0.28903,-1.17151 0.28903,-2.110429 v -4.099431 h -0.98852 v 4.099431 c 0,0.805521 -0.0564,1.356216 -0.16931,1.660638 -0.11459,0.299291 -0.31126,0.540434 -0.58832,0.723429 -0.27706,0.184705 -0.60885,0.277058 -0.99194,0.277058 -0.4686,0 -0.89616,-0.136819 -1.28267,-0.413877 -0.38823,-0.277058 -0.67213,-0.644758 -0.84999,-1.101391 -0.17957,-0.461763 -0.26851,-1.229658 -0.26851,-2.305396 v -2.939892 h -0.96628 v 3.844606 c 0,0.906425 -0.0564,1.520399 -0.16589,1.845343 -0.11459,0.323234 -0.31126,0.58319 -0.59174,0.778157 -0.28048,0.196677 -0.61569,0.29245 -1.00049,0.29245 -0.44637,0 -0.86367,-0.133398 -1.25189,-0.403615 -0.38651,-0.266797 -0.67383,-0.631077 -0.86025,-1.085999 -0.18812,-0.453212 -0.28219,-1.150988 -0.28219,-2.089907 v -3.181035 h -0.96457 z"
         style="fill:#36a9e1;fill-opacity:1;fill-rule:nonzero;stroke:none;stroke-width:1.71023"
         id="path963" /><path
         d="m 392.41976,35.429084 c -0.53701,0 -1.03469,-0.133398 -1.48961,-0.396774 -0.45493,-0.265087 -0.81579,-0.636208 -1.086,-1.113363 -0.2668,-0.477155 -0.4002,-0.981674 -0.4002,-1.513557 0,-0.530173 0.1334,-1.034692 0.40362,-1.515268 0.27021,-0.485706 0.63449,-0.858537 1.09284,-1.127044 0.45663,-0.270217 0.94747,-0.403616 1.46909,-0.403616 0.53188,0 1.02956,0.133399 1.50329,0.401906 0.47374,0.263376 0.83802,0.624235 1.09284,1.077447 0.25312,0.454922 0.37968,0.969703 0.37968,1.537501 0,0.868799 -0.2839,1.592228 -0.85512,2.177128 -0.57464,0.5849 -1.27584,0.87564 -2.11043,0.87564 m 3.85829,0.738821 v -7.506218 h -0.9526 v 1.292937 c -0.40362,-0.494258 -0.85854,-0.865379 -1.36306,-1.113363 -0.50452,-0.249694 -1.05521,-0.372831 -1.64866,-0.372831 -1.06377,0 -1.9719,0.386513 -2.7227,1.154409 -0.7525,0.773025 -1.12875,1.708524 -1.12875,2.813335 0,1.079158 0.37967,2.004395 1.13901,2.77229 0.75764,0.767895 1.66919,1.152698 2.73809,1.152698 0.61397,0 1.17151,-0.129978 1.67432,-0.395064 0.49768,-0.259956 0.9355,-0.65331 1.31175,-1.178352 v 1.380159 z"
         style="fill:#36a9e1;fill-opacity:1;fill-rule:nonzero;stroke:none;stroke-width:1.71023"
         id="path967" /><path
         d="m 403.48943,28.661516 h 0.60713 l -0.11629,-0.820912 c 0.10432,0.01539 0.19325,0.02223 0.25995,0.02223 0.22746,0 0.41559,-0.07012 0.5678,-0.210359 0.1505,-0.140239 0.22746,-0.316394 0.22746,-0.526752 0,-0.304422 -0.14024,-0.562667 -0.41387,-0.776447 -0.27706,-0.210359 -0.66529,-0.316393 -1.16638,-0.316393 -0.41046,0 -0.79355,0.07012 -1.15099,0.206938 l 0.1505,0.477156 c 0.29587,-0.09235 0.56951,-0.136819 0.82775,-0.136819 0.34718,0 0.58832,0.04105 0.72514,0.126557 0.13511,0.0838 0.20694,0.191546 0.20694,0.321524 0,0.07696 -0.0376,0.14708 -0.11459,0.206939 -0.077,0.05986 -0.17957,0.09064 -0.31297,0.09064 -0.11116,0 -0.27022,-0.02394 -0.484,-0.06328 z m 3.93867,5.946485 -0.76619,-0.475445 c -0.66015,0.87906 -1.56315,1.31688 -2.70559,1.31688 -0.91497,0 -1.67432,-0.29416 -2.27803,-0.882481 -0.60371,-0.588321 -0.90471,-1.303198 -0.90471,-2.141213 0,-0.547275 0.13682,-1.062056 0.41387,-1.542632 0.28048,-0.483996 0.66187,-0.858537 1.14586,-1.121913 0.484,-0.268507 1.02614,-0.401905 1.62985,-0.401905 1.10311,0 2.00098,0.43782 2.69875,1.31688 l 0.76619,-0.501099 c -0.35744,-0.542144 -0.83973,-0.962862 -1.44344,-1.260442 -0.60542,-0.295871 -1.29294,-0.446371 -2.06767,-0.446371 -1.18519,0 -2.172,0.376251 -2.95358,1.132175 -0.78157,0.754213 -1.17151,1.672609 -1.17151,2.751767 0,0.728559 0.183,1.404102 0.5507,2.024917 0.36428,0.624236 0.86538,1.108232 1.50672,1.45883 0.63791,0.347177 1.35279,0.525042 2.14292,0.525042 0.49939,0 0.97654,-0.07696 1.43831,-0.227461 0.46347,-0.153921 0.85511,-0.350598 1.17835,-0.595162 0.31981,-0.242853 0.59516,-0.554116 0.8192,-0.930367"
         style="fill:#36a9e1;fill-opacity:1;fill-rule:nonzero;stroke:none;stroke-width:1.71023"
         id="path971" /><path
         d="m 416.76307,38.959692 0.484,-0.668702 c -0.33008,-0.239432 -0.61056,-0.403615 -0.83802,-0.487416 -0.22575,-0.0838 -0.46689,-0.126558 -0.72172,-0.126558 -0.33007,0 -0.67041,0.08722 -1.01759,0.256535 -0.301,0.147081 -0.49083,0.230882 -0.57464,0.254825 -0.11116,0.0325 -0.23088,0.04618 -0.35743,0.04618 -0.16077,0 -0.31469,-0.02565 -0.45835,-0.0838 -0.14708,-0.05986 -0.35744,-0.186415 -0.63107,-0.389933 l -0.45664,0.704616 c 0.42072,0.448082 0.93721,0.673833 1.5529,0.673833 0.29416,0 0.64475,-0.09406 1.05521,-0.283899 0.39164,-0.182995 0.69778,-0.273638 0.92524,-0.273638 0.2514,0 0.59858,0.126558 1.03811,0.377962 m -2.16687,-3.529924 c -0.53872,0 -1.03298,-0.135108 -1.48619,-0.398484 -0.45834,-0.263376 -0.8192,-0.634497 -1.086,-1.111652 -0.27022,-0.478866 -0.40361,-0.981675 -0.40361,-1.513558 0,-0.531883 0.13681,-1.034692 0.40703,-1.516978 0.27022,-0.483996 0.6345,-0.858537 1.09284,-1.125334 0.45321,-0.270217 0.94405,-0.403615 1.46909,-0.403615 0.52846,0 1.02956,0.133398 1.5033,0.400195 0.47031,0.263376 0.83459,0.624235 1.09113,1.079158 0.25482,0.454922 0.38138,0.967992 0.38138,1.53579 0,0.868799 -0.28732,1.593938 -0.85854,2.178838 -0.57122,0.584901 -1.27583,0.87564 -2.11043,0.87564 m 3.85829,0.737111 v -7.504508 h -0.9526 v 1.291227 c -0.40361,-0.494258 -0.85854,-0.863668 -1.35964,-1.111652 -0.50451,-0.249694 -1.05521,-0.374541 -1.65379,-0.374541 -1.06206,0 -1.96677,0.388223 -2.72098,1.156118 -0.75251,0.771316 -1.12705,1.706814 -1.12705,2.813335 0,1.077448 0.37796,2.002685 1.13902,2.77229 0.75763,0.767895 1.6709,1.150988 2.73637,1.150988 0.6174,0 1.17664,-0.129978 1.67432,-0.393354 0.49768,-0.259956 0.93379,-0.65502 1.31175,-1.178351 v 1.378448 z"
         style="fill:#36a9e1;fill-opacity:1;fill-rule:nonzero;stroke:none;stroke-width:1.71023"
         id="path975" /><path
         d="m 425.8728,35.415745 c -0.8021,0 -1.49303,-0.297581 -2.07109,-0.889322 -0.57464,-0.593451 -0.86538,-1.31175 -0.86538,-2.153185 0,-0.542144 0.1334,-1.050084 0.39506,-1.516978 0.26338,-0.466894 0.6174,-0.831174 1.0689,-1.085998 0.44637,-0.256536 0.93892,-0.383093 1.47251,-0.383093 0.53359,0 1.02614,0.126557 1.47251,0.383093 0.44808,0.254824 0.80552,0.619104 1.06548,1.085998 0.26508,0.466894 0.39848,0.974834 0.39848,1.516978 0,0.841435 -0.29074,1.559734 -0.87222,2.153185 -0.57806,0.591741 -1.26557,0.889322 -2.06425,0.889322 m 0.003,0.94576 c 1.15612,0 2.11385,-0.417298 2.87319,-1.257023 0.69094,-0.764474 1.03812,-1.665768 1.03812,-2.712431 0,-1.044953 -0.3677,-1.963349 -1.09626,-2.744926 -0.73027,-0.784998 -1.66919,-1.178352 -2.81505,-1.178352 -1.1527,0 -2.09504,0.393354 -2.82189,1.178352 -0.73369,0.781577 -1.09626,1.699973 -1.09626,2.744926 0,1.043243 0.34376,1.941116 1.0347,2.70559 0.76276,0.843146 1.72049,1.263864 2.88345,1.263864"
         style="fill:#36a9e1;fill-opacity:1;fill-rule:nonzero;stroke:none;stroke-width:1.71023"
         id="path979" /><path
         d="m 121.81692,37.272888 -0.077,0.819202 3.40679,1.16467 0.077,-0.819202 z"
         style="fill:#36a9e1;fill-opacity:1;fill-rule:nonzero;stroke:none;stroke-width:1.71023"
         id="path983" /></g></g></svg>
